<svg id="Ebene_1" data-name="Ebene 1" xmlns="http://www.w3.org/2000/svg" xmlns:xlink="http://www.w3.org/1999/xlink" viewBox="0 0 713.81 262.77"><defs><style>.cls-1{fill:url(#Unbenannter_Verlauf_4);}.cls-2{font-size:31.03px;letter-spacing:0.1em;}.cls-2,.cls-5{fill:#485b7c;font-family:ArialMT, Arial;}.cls-3{letter-spacing:0.04em;}.cls-4,.cls-5{font-size:70.24px;}.cls-4,.cls-7{letter-spacing:0.1em;}.cls-5{letter-spacing:0.1em;}.cls-6{letter-spacing:0.04em;}</style><linearGradient id="Unbenannter_Verlauf_4" x1="356.9" y1="262.77" x2="356.9" gradientUnits="userSpaceOnUse"><stop offset="0" stop-color="#91a0bf"/><stop offset="0.06" stop-color="#91a0be" stop-opacity="0.97"/><stop offset="0.13" stop-color="#919fba" stop-opacity="0.9"/><stop offset="0.2" stop-color="#919db5" stop-opacity="0.78"/><stop offset="0.28" stop-color="#919aad" stop-opacity="0.61"/><stop offset="0.36" stop-color="#9197a3" stop-opacity="0.39"/><stop offset="0.44" stop-color="#919397" stop-opacity="0.12"/><stop offset="0.47" stop-color="#919191" stop-opacity="0"/><stop offset="0.53" stop-color="#919398" stop-opacity="0.16"/><stop offset="0.65" stop-color="#9198a6" stop-opacity="0.46"/><stop offset="0.76" stop-color="#919bb1" stop-opacity="0.69"/><stop offset="0.86" stop-color="#919eb9" stop-opacity="0.86"/><stop offset="0.94" stop-color="#919fbd" stop-opacity="0.96"/><stop offset="1" stop-color="#91a0bf"/></linearGradient></defs><path class="cls-1" d="M317.19,162.67h6.23V93.87h-6.23Zm-8.13,11.14h6.23V99.92h-6.23ZM292.79,150H299V129h-6.23Zm105.73,25.73h6.23v-73h-6.23ZM284.66,145.31h6.23V133.94h-6.23Zm-32.54,2.15h6.24V133.25h-6.24ZM244,149.73h6.23V130.4H244Zm24.4-6.16h6.23v-8h-6.23Zm8.13-.12h6.24v-6.31h-6.24Zm-16.26,3h6.23V135.19h-6.23Zm113.86,31.16h6.23V114.75h-6.23ZM366,185.69h6.23V109.28H366Zm16.26-19.62h6.24V117.26h-6.24Zm-56.93,0h6.23V90.68h-6.23Zm65.07-1.67h6.23V106.73h-6.23Zm-56.94,11.84h6.24V92.6h-6.24Zm24.4,13h6.24V98.66h-6.24Zm-16.26-2.9h6.23V78.34h-6.23Zm8.13,5.1H356V87.93h-6.23Zm-48.8-10.8h6.23V107.27h-6.23Zm-138.26-2.36h6.23V110.56h-6.23Zm-32.53,59.68h6.23V89.31h-6.23Zm16.26-32.58h6.24V116.41h-6.24Zm8.14-13.7h6.23V124.92h-6.23Zm-16.27,32.88h6.23V108.19h-6.23ZM122,243.85h6.23V71.45H122Zm-24.4-43.7h6.23V62H97.6ZM105.73,225H112V32h-6.23Zm8.13,24.82h6.23V34.26h-6.23Zm56.93-93.92H177V121h-6.24Zm32.54,23.31h6.23V109.4h-6.23Zm16.26-13.36h6.23V109.63h-6.23Zm-8.13,7.08h6.23v-68h-6.23Zm16.26-4.21H234v-62h-6.24Zm8.14-9.83h6.23V114.62h-6.23Zm-56.93,2.35h6.23V125h-6.23ZM195.19,165h6.24V110.74h-6.24Zm-8.13-2.27h6.23v-43h-6.23Zm496.11,2.41h6.24V108.37h-6.24ZM610,162.05h6.23V119.33H610Zm-48.8.36h6.23v-44.8h-6.23Zm40.66-8.69h6.24v-29h-6.24Zm24.4,11.87h6.24V114h-6.24Zm-48.79,5.61h6.23V122.64h-6.23Zm56.93-2.53h6.23v-61h-6.23Zm-65.07-16.88h6.23V122.18h-6.23Zm24.4-5.8h6.23V131.55h-6.23Zm-8.13,4.3h6.23V127.1h-6.23Zm32.53,12.56h6.23V110.32h-6.23Zm81.33-9.48h6.23V124.59h-6.23Zm8.13-23v19.88h6.24V130.41Zm-300.92,50.3h6.23V97.38h-6.23ZM691.31,157h6.23V122.76h-6.23Zm-40.67,20.66h6.24V97.87h-6.24Zm-8.13-6.39h6.23V106.64h-6.23ZM675,163.54h6.23v-43H675Zm-16.26,7.87H665V114.08h-6.23Zm8.13-2.79h6.23V116.48h-6.23ZM431.05,217.35h6.23V61.77h-6.23Zm32.53,28.77h6.24V29.23h-6.24Zm-8.13-37.81h6.23V48.87h-6.23Zm16.27,46H478V20.21h-6.23Zm8.13,8.43h6.23V0h-6.23ZM447.32,215.5h6.23V40.42h-6.23Zm-32.54-19.95H421V84.14h-6.24Zm24.4,43.37h6.24V45.9h-6.24Zm-16.26-36.64h6.23V78.89h-6.23Zm105.73-33.94h6.23V107.56h-6.23Zm8.13-11.29H543V120.68h-6.23Zm16.27,9.59h6.23V112.46h-6.23ZM520.51,175h6.24V104.14h-6.24Zm24.4-4.78h6.24V108.8h-6.24ZM504.25,195.4h6.23V107.57h-6.23ZM488,227h6.23V81.3H488Zm8.14-20.56h6.23V85h-6.23Zm16.26-30.26h6.23v-66.7h-6.23ZM32.53,172h6.23V107.16H32.53Zm-8.13-2.52h6.23V110H24.4Zm-8.13-10.85H22.5V129.89H16.27Zm24.4,6.11H46.9V120.87H40.67ZM0,154.68H6.23V138.91H0Zm8.13,5.82h6.24v-26H8.13ZM73.2,145.65h6.23V135.36H73.2ZM81.33,170h6.23V117.05H81.33Zm8.13,16.44H95.7V87.3H89.46Zm-24.4-36.77H71.3V137.07H65.06ZM48.8,152.51H55V129.43H48.8Zm8.13-6.06h6.23V133.77H56.93Z"/><text class="cls-2" transform="translate(3.19 150.31)">ww<tspan class="cls-3" x="51.03" y="0">w</tspan><tspan x="74.83" y="0">.</tspan><tspan class="cls-4" x="86.56" y="0" xml:space="preserve">                     </tspan><tspan x="643.86" y="0" xml:space="preserve"> .de</tspan></text><text class="cls-5" transform="translate(86.33 162.54)">Thorsten-<tspan class="cls-6" x="363.78" y="0">V</tspan><tspan class="cls-7" x="413.78" y="0">oice</tspan></text></svg>